<svg viewBox="0 0 888 743" xmlns="http://www.w3.org/2000/svg"><g fill="none"><path d="m887.772 733.25-635.509 9.581-252.263-44.71h393.817z" fill="#e6e6e6"/><circle cx="741.82227" cy="101.66024" fill="#f7c94a" r="101.66024"/><path d="m179.84034 703.43488s1.487-31.15875 31.97119-27.537" fill="#003e6b"/><circle cx="171.2269" cy="658.52637" fill="#7cd4da" r="15.25711"/><path d="m168.74434 684.21843h4.30672v30.14703h-4.30672z" fill="#003e6b"/><path d="m682.28675 708.7574s1.487-31.15874 31.97119-27.537" fill="#003e6b"/><circle cx="673.67331" cy="663.8489" fill="#7cd4da" r="15.25711"/><path d="m671.19075 689.54095h4.30672v30.14703h-4.30672z" fill="#003e6b"/><path d="m755.7376 714.07993s1.487-31.15874 31.9712-27.537" fill="#003e6b"/><circle cx="747.12416" cy="669.17142" fill="#7cd4da" r="15.25711"/><path d="m744.64161 694.86348h4.30672v30.14703h-4.30672z" fill="#003e6b"/><path d="m300.12942 688.5318s1.487-31.15874 31.97119-27.53695" fill="#003e6b"/><circle cx="291.51598" cy="643.6233" fill="#7cd4da" r="15.25711"/><path d="m289.03342 669.31536h4.30672v30.14703h-4.30672z" fill="#003e6b"/><path d="m73.38983 693.85435s1.487-31.15874 31.97119-27.537" fill="#003e6b"/><circle cx="64.77639" cy="648.94583" fill="#7cd4da" r="15.25711"/><path d="m62.29383 674.63788h4.30672v30.14703h-4.30672z" fill="#003e6b"/><circle cx="442.27688" cy="473.48191" fill="#003e6b" r="166.22823"/><path d="m337.62593 486.8256c8.357571-10.005433 20.722753-15.788221 33.759535-15.788221s25.401964 5.782788 33.759535 15.788221c14.452757-13.797152 19.055323-35.000493 11.623571-53.548071-7.431752-18.547577-25.402026-30.706301-45.383106-30.706301s-37.951354 12.158724-45.383106 30.706301c-7.431752 18.547578-2.829186 39.750919 11.623571 53.548071z" fill="#fff"/><path d="m469.63071 486.8256c8.357555-10.005434 20.722728-15.788224 33.7595-15.788224s25.401945 5.78279 33.7595 15.788224c14.452756-13.79714 19.055327-35.000471 11.623582-53.548042s-25.40201-30.706292-45.383082-30.706292-37.951337 12.158721-45.383082 30.706292-2.829174 39.750902 11.623582 53.548042z" fill="#fff"/><circle cx="354.70738" cy="434.81392" fill="#003e6b" r="16.81788"/><circle cx="486.70738" cy="434.81392" fill="#003e6b" r="16.81788"/><circle cx="322.49478" cy="515.03897" fill="#ff6584" r="19.55626"/><circle cx="547.39179" cy="515.03897" fill="#ff6584" r="19.55626"/><path d="m434.943 475.926-14.667 63.558 24.445-24.445z" fill="#ff6584"/><g fill="#003e6b"><path d="m510.307 720.38-16.652-13.976.388 13.976h-5.172l-.413-14.778-22.483 14.778h-9.412l31.727-20.854-1.229-43.789-.918-33.071 5.159-.142.931 33.213 1.228 43.75 24.887 20.893z"/><path d="m432.076 720.38-16.652-13.976.388 13.976h-5.158l-.414-14.778-22.483 14.778h-9.412l31.714-20.854-1.228-43.789-.918-33.071 5.171-.142.931 33.213 1.215 43.75 24.888 20.893z"/><path d="m444.72142 295.03101c-4.56112 0-8.58481 3.543-11.27493 8.985-2.37112-8.18315-7.3527-13.874-13.1704-13.874-.395392.039304-.787687.1052-1.17422.19724-2.23625-8.737-7.43356-14.86444-13.493-14.86444-8.1005 0-14.6672 10.9446-14.6672 24.44533s6.5667 24.44533 14.6672 24.44533c.395392-.039307.787687-.105206 1.17422-.19725 2.23625 8.737 7.43356 14.86444 13.493 14.86444 4.56112 0 8.58481-3.543 11.27493-8.985 2.37113 8.18316 7.3527 13.874 13.1704 13.874 8.1005 0 14.6672-10.9446 14.6672-24.44533s-6.5667-24.44532-14.6672-24.44532z"/></g><path d="m237.3597 414.24842c12.966596 0 25.402114 5.15096 34.570882 14.319728s14.319728 21.604286 14.319728 34.570882v24.44543c0 27.001538-21.889072 48.89061-48.89061 48.89061z" fill="#7cd4da" transform="matrix(-1 0 0 -1 523.61001 950.72349)"/><path d="m598.30346 414.24843c12.966598 0 25.402122 5.150936 34.5709 14.319696 9.168778 9.168761 14.31976 21.604276 14.31976 34.570874v24.44543c0 12.966596-5.15096 25.402114-14.319728 34.570882s-21.604286 14.319728-34.570932 14.319728z" fill="#7cd4da"/><path d="m623.92276 466.98049h-7.75712c0-98.37742-80.03569-178.41374-178.41374-178.41374-98.37742 0-178.41374 80.03632-178.41374 178.41374h-7.75712c0-102.655 83.51592-186.17086 186.17086-186.17086 102.65558 0 186.17086 83.51591 186.17086 186.17086z" fill="#7cd4da"/><g fill="#003e6b"><path d="m171.54731 317.47335.00139-.0029-3.64431-1.51771-15.37654-6.50027-5.51164-2.32988-.423 1.06789-7.40381 18.694 20.83674 8.81923.1094.09906-1.40416 3.31082c-.192188.302831-.356176.622663-.4899.95547-.98358 2.48353.87418 4.95394 2.63035 5.6494s3.9773-.75381 4.96087-3.23734c.97022-2.44974.02206-5.5618-1.68937-6.31373l.00151-.0029-3.64431-1.51771-12.46676-4.84631 7.12325-17.98534-1.0558-.41806-7.12577 17.992-1.54154-.59929 7.15363-18.06223.18843.07978 14.6541 6.20232.10928.09906-1.404 3.31082c-.192235.302803-.356222.622639-.48989.95547-.98371 2.48353.87405 4.95394 2.63022 5.6494s3.9773-.75381 4.96087-3.23734c.97023-2.44971.02207-5.56178-1.68924-6.31371z"/><path d="m243.66722 363.36743c-7.564-4.32464-6.05044-13.815-6.05044-13.815-.19032-6.16526-5.284-5.29259-5.284-5.29259l-1.85385.4231c-.861184-.399687-1.809471-.575062-2.75664-.50981l-2.82.47452c6.42137 1.50877 5.89378 6.88051 5.89378 6.88051l.89964 6.281-16.82582-6.78775 1.93187-4.555c.26701-.420597.494789-.864849.68046-1.32715 1.3661-3.44946-1.21409-6.88051-3.65325-7.84645-2.43916-.96618-5.524 1.0471-6.89022 4.49643-1.34744 3.40232-.0305 7.7247 2.3464 8.769l-.002.00415 5.06157 2.10782.03769-.11936zm-8.54443-11.036.53956 6.012c-1.905136-2.673214-2.800132-5.935615-2.52575-9.20675-.044711-1.163567-.437235-2.287009-1.12688-3.22524 2.161704 1.384925 3.364303 3.865002 3.11307 6.41997z"/><path d="m115.31894 274.45585.002-.004-5.06157-2.10794-21.1545-8.22341 5.33923-4.75027c2.1703523-2.893361 6.23672-3.559513 9.21683-1.5099l-1.65686-2.46248s-3.11483-4.12374-7.475.23935c0 0-5.39481 7.95307-13.86878 5.92579l28.94032 12.249.15187.13763-1.95014 4.59827c-.267035.420584-.494818.864839-.68047 1.32715-1.36609 3.44933 1.2141 6.88038 3.65326 7.84644s5.524-1.0471 6.89022-4.49643c1.34743-3.40237.03049-7.7247-2.34641-8.7692z"/><path d="m192.7659 247.54135-1.95027 4.59826c-.266952.420611-.494689.864862-.68034 1.32715-1.36622 3.44933 1.214 6.88039 3.65313 7.84645s5.52412-1.0471 6.89022-4.49643c1.34756-3.40232.03062-7.7247-2.34627-8.76915l.002-.004-5.06157-2.10794-17.31509-6.73091 9.89338-24.97992-1.46629-.58077-9.89716 24.98925-2.141-.83221 9.9356-25.0868.26178.11078 20.353 8.61438.152.13763-1.95018 4.59823c-.266926.420626-.494662.864874-.68034 1.32715-1.36622 3.44946 1.214 6.88051 3.65313 7.84657s5.52412-1.0471 6.89022-4.49656c1.34756-3.40231.03062-7.72469-2.34628-8.769l.002-.00416-5.06157-2.10781-20.68475-8.74419-.00088-.00038-.67088-.28358-7.65513-3.23608-10.87066 27.44744 28.9402 12.249z"/><path d="m101.05358 106.97181.00353-.00706-8.71319-3.62856-36.41622-14.15627 9.19111-8.17728s6.11371-8.4828 15.86619-2.5991l-2.852-4.23907s-5.36217-7.09893-12.86781.41189c0 0-9.2869 13.69082-23.87434 10.201l49.81893 21.08581.26152.237-3.35707 7.91563c-.4595824.724076-.8516861 1.488836-1.17137 2.28464-2.35169 5.9379 2.08991 11.84429 6.28877 13.50732s9.50936-1.80256 11.86117-7.74045c2.31951-5.85696.05251-13.29761-4.03922-15.0955z"/><path d="m127.79355 225.88545c-18.08491-10.33993-14.46594-33.03029-14.46594-33.03029-.455-14.7407-12.63376-12.65406-12.63376-12.65406l-4.43241 1.01143c-2.0590009-.955663-4.3262739-1.375001-6.59088-1.219l-6.7425 1.13469c15.353 3.60738 14.09161 16.45074 14.09161 16.45074l2.15092 15.0171-40.229-16.2288 4.61893-10.89082c.6383457-1.005638 1.1829671-2.067787 1.627-3.17306 3.26633-8.24724-2.90271-16.45062-8.73461-18.76034s-13.20748 2.50356-16.47381 10.75068c-3.22184 8.13468-.07322 18.46919 5.60983 20.96607l-.00479.00983 12.10177 5.03977.09011-.28534zm-20.429-26.3861 1.29451 14.42385c-7.59564-10.08294-6.04314-22.06233-6.04314-22.06233-.107048-2.781939-1.045516-5.467927-2.69425-7.71121 8.72525 5.22138 7.44284 15.34969 7.44284 15.34969z"/></g></g></svg>