<svg height="40" viewBox="0 0 40 40" width="40" xmlns="http://www.w3.org/2000/svg" xmlns:xlink="http://www.w3.org/1999/xlink"><linearGradient id="a" x1="100%" x2="0%" y1="0%" y2="100%"><stop offset="0" stop-color="#0e7c86"/><stop offset="1" stop-color="#044e54"/></linearGradient><g fill="none" fill-rule="evenodd" transform="translate(-4 -4)"><path d="m0 0h48v48h-48z"/><path d="m20 26c1.1045695 0 2 .8954305 2 2v14c0 1.1045695-.8954305 2-2 2h-14c-1.1045695 0-2-.8954305-2-2v-14c0-1.1045695.8954305-2 2-2zm22-22c1.1045695 0 2 .8954305 2 2v14c0 1.1045695-.8954305 2-2 2h-14c-1.1045695 0-2-.8954305-2-2v-14c0-1.1045695.8954305-2 2-2zm-30 10.0001351v8h-6c-1.1045695 0-2-.8954305-2-2v-6zm10.0024378 0v6c0 1.1045695-.8954305 2-2 2h-6v-8zm-10.0024378-10.0001351v8h-8v-6c0-1.1045695.8954305-2 2-2zm8.0024378 0c1.1045695 0 2 .8954305 2 2v6h-8v-8z" fill="url(#a)" fill-rule="nonzero"/></g></svg>